<?xml version="1.0" encoding="UTF-8" standalone="no"?>
<!DOCTYPE svg PUBLIC "-//W3C//DTD SVG 1.1//EN"
 "http://www.w3.org/Graphics/SVG/1.1/DTD/svg11.dtd">
<!-- Generated by graphviz version 2.44.0 (0)
 -->
<!-- Pages: 1 -->
<svg width="1069pt" height="601pt"
 viewBox="0.00 0.00 1069.00 601.00" xmlns="http://www.w3.org/2000/svg" xmlns:xlink="http://www.w3.org/1999/xlink">
<g id="graph0" class="graph" transform="scale(1 1) rotate(0) translate(4 597)">
<polygon fill="white" stroke="transparent" points="-4,4 -4,-597 1065,-597 1065,4 -4,4"/>
<!-- 1 -->
<g id="node1" class="node">
<title>1</title>
<polygon fill="#ff0000" stroke="#ff0000" points="829.5,-593 774.5,-593 774.5,-552 829.5,-552 829.5,-593"/>
<text text-anchor="middle" x="802" y="-581" font-family="Arial" font-size="10.00" fill="#ffffff">main</text>
<text text-anchor="middle" x="802" y="-570" font-family="Arial" font-size="10.00" fill="#ffffff">100.00%</text>
<text text-anchor="middle" x="802" y="-559" font-family="Arial" font-size="10.00" fill="#ffffff">(0.00%)</text>
</g>
<!-- 2 -->
<g id="node2" class="node">
<title>2</title>
<polygon fill="#fd1000" stroke="#fd1000" points="828.5,-512 621.5,-512 621.5,-460 828.5,-460 828.5,-512"/>
<text text-anchor="middle" x="725" y="-500" font-family="Arial" font-size="10.00" fill="#ffffff">programacao_dinamica(tabuleiro*, solucao*)</text>
<text text-anchor="middle" x="725" y="-489" font-family="Arial" font-size="10.00" fill="#ffffff">98.46%</text>
<text text-anchor="middle" x="725" y="-478" font-family="Arial" font-size="10.00" fill="#ffffff">(0.00%)</text>
<text text-anchor="middle" x="725" y="-467" font-family="Arial" font-size="10.00" fill="#ffffff">1×</text>
</g>
<!-- 1&#45;&gt;2 -->
<g id="edge1" class="edge">
<title>1&#45;&gt;2</title>
<path fill="none" stroke="#fd1000" stroke-width="3.94" d="M784.14,-551.9C775.41,-542.32 764.66,-530.52 754.73,-519.63"/>
<polygon fill="#fd1000" stroke="#fd1000" stroke-width="3.94" points="757.25,-517.25 748.02,-512.27 752.13,-521.92 757.25,-517.25"/>
<text text-anchor="middle" x="792" y="-535" font-family="Arial" font-size="10.00" fill="#fd1000">98.46%</text>
<text text-anchor="middle" x="792" y="-524" font-family="Arial" font-size="10.00" fill="#fd1000">1×</text>
</g>
<!-- 18 -->
<g id="node3" class="node">
<title>18</title>
<polygon fill="#0d1375" stroke="#0d1375" points="918,-512 838,-512 838,-460 918,-460 918,-512"/>
<text text-anchor="middle" x="878" y="-500" font-family="Arial" font-size="10.00" fill="#ffffff">cria_tabuleiro()</text>
<text text-anchor="middle" x="878" y="-489" font-family="Arial" font-size="10.00" fill="#ffffff">1.54%</text>
<text text-anchor="middle" x="878" y="-478" font-family="Arial" font-size="10.00" fill="#ffffff">(1.54%)</text>
<text text-anchor="middle" x="878" y="-467" font-family="Arial" font-size="10.00" fill="#ffffff">1×</text>
</g>
<!-- 1&#45;&gt;18 -->
<g id="edge2" class="edge">
<title>1&#45;&gt;18</title>
<path fill="none" stroke="#0d1375" stroke-width="0.5" d="M819.63,-551.9C829.49,-540.93 841.96,-527.07 852.84,-514.98"/>
<polygon fill="#0d1375" stroke="#0d1375" stroke-width="0.5" points="853.84,-515.69 855.27,-512.27 852.02,-514.05 853.84,-515.69"/>
<text text-anchor="middle" x="861" y="-535" font-family="Arial" font-size="10.00" fill="#0d1375">1.54%</text>
<text text-anchor="middle" x="861" y="-524" font-family="Arial" font-size="10.00" fill="#0d1375">1×</text>
</g>
<!-- 3 -->
<g id="node4" class="node">
<title>3</title>
<polygon fill="#f34c02" stroke="#f34c02" points="736.5,-420 295.5,-420 295.5,-368 736.5,-368 736.5,-420"/>
<text text-anchor="middle" x="516" y="-408" font-family="Arial" font-size="10.00" fill="#ffffff">programacao_dinamica_recursivo(tabuleiro*, solucao*, std::unordered_map&lt;uint64_t , uint64_t&gt;&amp;)</text>
<text text-anchor="middle" x="516" y="-397" font-family="Arial" font-size="10.00" fill="#ffffff">92.31%</text>
<text text-anchor="middle" x="516" y="-386" font-family="Arial" font-size="10.00" fill="#ffffff">(6.15%)</text>
<text text-anchor="middle" x="516" y="-375" font-family="Arial" font-size="10.00" fill="#ffffff">1315453×</text>
</g>
<!-- 2&#45;&gt;3 -->
<g id="edge3" class="edge">
<title>2&#45;&gt;3</title>
<path fill="none" stroke="#f34c02" stroke-width="3.69" d="M666.78,-459.93C640.85,-448.76 610.14,-435.54 583.24,-423.95"/>
<polygon fill="#f34c02" stroke="#f34c02" stroke-width="3.69" points="584.41,-420.8 574.27,-420.09 581.76,-426.97 584.41,-420.8"/>
<text text-anchor="middle" x="663" y="-443" font-family="Arial" font-size="10.00" fill="#f34c02">92.31%</text>
<text text-anchor="middle" x="663" y="-432" font-family="Arial" font-size="10.00" fill="#f34c02">1×</text>
</g>
<!-- 14 -->
<g id="node5" class="node">
<title>14</title>
<polygon fill="#0d287b" stroke="#0d287b" points="1061,-420 807,-420 807,-368 1061,-368 1061,-420"/>
<text text-anchor="middle" x="934" y="-408" font-family="Arial" font-size="10.00" fill="#ffffff">std::unordered_map&lt;uint64_t,uint64_t&gt;::~_Hashtable()</text>
<text text-anchor="middle" x="934" y="-397" font-family="Arial" font-size="10.00" fill="#ffffff">6.15%</text>
<text text-anchor="middle" x="934" y="-386" font-family="Arial" font-size="10.00" fill="#ffffff">(0.00%)</text>
<text text-anchor="middle" x="934" y="-375" font-family="Arial" font-size="10.00" fill="#ffffff">1×</text>
</g>
<!-- 2&#45;&gt;14 -->
<g id="edge4" class="edge">
<title>2&#45;&gt;14</title>
<path fill="none" stroke="#0d287b" stroke-width="0.5" d="M783.22,-459.93C810.96,-447.98 844.15,-433.69 872.32,-421.56"/>
<polygon fill="#0d287b" stroke="#0d287b" stroke-width="0.5" points="873,-422.6 875.73,-420.09 872.03,-420.35 873,-422.6"/>
<text text-anchor="middle" x="869" y="-443" font-family="Arial" font-size="10.00" fill="#0d287b">6.15%</text>
<text text-anchor="middle" x="869" y="-432" font-family="Arial" font-size="10.00" fill="#0d287b">1×</text>
</g>
<!-- 3&#45;&gt;3 -->
<g id="edge5" class="edge">
<title>3&#45;&gt;3</title>
<path fill="none" stroke="#f34c02" stroke-width="3.69" d="M736.6,-398.27C742.3,-397.08 745.5,-395.66 745.5,-394 745.5,-393.9 745.49,-393.79 745.46,-393.69"/>
<polygon fill="#f34c02" stroke="#f34c02" stroke-width="3.69" points="746.74,-390.58 736.6,-389.73 744,-396.72 746.74,-390.58"/>
<text text-anchor="middle" x="767" y="-391.5" font-family="Arial" font-size="10.00" fill="#f34c02">1315452×</text>
</g>
<!-- 4 -->
<g id="node6" class="node">
<title>4</title>
<polygon fill="#0aac37" stroke="#0aac37" points="334,-328 0,-328 0,-276 334,-276 334,-328"/>
<text text-anchor="middle" x="167" y="-316" font-family="Arial" font-size="10.00" fill="#ffffff">std::unordered_map&lt;uint64_t,uint64_t&gt;::operator[](unsigned long const&amp;)</text>
<text text-anchor="middle" x="167" y="-305" font-family="Arial" font-size="10.00" fill="#ffffff">43.06%</text>
<text text-anchor="middle" x="167" y="-294" font-family="Arial" font-size="10.00" fill="#ffffff">(4.62%)</text>
<text text-anchor="middle" x="167" y="-283" font-family="Arial" font-size="10.00" fill="#ffffff">2029590×</text>
</g>
<!-- 3&#45;&gt;4 -->
<g id="edge6" class="edge">
<title>3&#45;&gt;4</title>
<path fill="none" stroke="#0aac37" stroke-width="1.72" d="M333.27,-367.96C321.26,-365.25 309.41,-362.27 298,-359 273.01,-351.83 246.45,-341.11 223.83,-330.96"/>
<polygon fill="#0aac37" stroke="#0aac37" stroke-width="1.72" points="224.53,-328.74 217.56,-328.11 222.62,-332.94 224.53,-328.74"/>
<text text-anchor="middle" x="319.5" y="-351" font-family="Arial" font-size="10.00" fill="#0aac37">43.06%</text>
<text text-anchor="middle" x="319.5" y="-340" font-family="Arial" font-size="10.00" fill="#0aac37">2029590×</text>
</g>
<!-- 7 -->
<g id="node7" class="node">
<title>7</title>
<polygon fill="#0c8791" stroke="#0c8791" points="784.5,-328 679.5,-328 679.5,-276 784.5,-276 784.5,-328"/>
<text text-anchor="middle" x="732" y="-316" font-family="Arial" font-size="10.00" fill="#ffffff">tem_ilhas(tabuleiro*)</text>
<text text-anchor="middle" x="732" y="-305" font-family="Arial" font-size="10.00" fill="#ffffff">23.18%</text>
<text text-anchor="middle" x="732" y="-294" font-family="Arial" font-size="10.00" fill="#ffffff">(0.00%)</text>
<text text-anchor="middle" x="732" y="-283" font-family="Arial" font-size="10.00" fill="#ffffff">601306×</text>
</g>
<!-- 3&#45;&gt;7 -->
<g id="edge7" class="edge">
<title>3&#45;&gt;7</title>
<path fill="none" stroke="#0c8791" stroke-width="0.93" d="M577.63,-367.93C606.88,-355.95 642.29,-341.36 674,-328 674.21,-327.91 674.43,-327.82 674.65,-327.73"/>
<polygon fill="#0c8791" stroke="#0c8791" stroke-width="0.93" points="675.46,-329.21 679.23,-325.79 674.15,-326.11 675.46,-329.21"/>
<text text-anchor="middle" x="668" y="-351" font-family="Arial" font-size="10.00" fill="#0c8791">23.18%</text>
<text text-anchor="middle" x="668" y="-340" font-family="Arial" font-size="10.00" fill="#0c8791">601306×</text>
</g>
<!-- 8 -->
<g id="node8" class="node">
<title>8</title>
<polygon fill="#0c6189" stroke="#0c6189" points="670,-328 362,-328 362,-276 670,-276 670,-328"/>
<text text-anchor="middle" x="516" y="-316" font-family="Arial" font-size="10.00" fill="#ffffff">std::unordered_map&lt;uint64_t,uint64_t&gt;::find(unsigned long const&amp;)</text>
<text text-anchor="middle" x="516" y="-305" font-family="Arial" font-size="10.00" fill="#ffffff">16.94%</text>
<text text-anchor="middle" x="516" y="-294" font-family="Arial" font-size="10.00" fill="#ffffff">(0.00%)</text>
<text text-anchor="middle" x="516" y="-283" font-family="Arial" font-size="10.00" fill="#ffffff">1315453×</text>
</g>
<!-- 3&#45;&gt;8 -->
<g id="edge8" class="edge">
<title>3&#45;&gt;8</title>
<path fill="none" stroke="#0c6189" stroke-width="0.68" d="M516,-367.93C516,-356.91 516,-343.88 516,-332.4"/>
<polygon fill="#0c6189" stroke="#0c6189" stroke-width="0.68" points="517.44,-332.35 516,-328.25 514.57,-332.35 517.44,-332.35"/>
<text text-anchor="middle" x="537.5" y="-351" font-family="Arial" font-size="10.00" fill="#0c6189">16.94%</text>
<text text-anchor="middle" x="537.5" y="-340" font-family="Arial" font-size="10.00" fill="#0c6189">1315453×</text>
</g>
<!-- 12 -->
<g id="node9" class="node">
<title>12</title>
<polygon fill="#0d377f" stroke="#0d377f" points="582,-144 354,-144 354,-92 582,-92 582,-144"/>
<text text-anchor="middle" x="468" y="-132" font-family="Arial" font-size="10.00" fill="#ffffff">getPecasAdj_tabuleiro(tabuleiro*, coord*, coord*)</text>
<text text-anchor="middle" x="468" y="-121" font-family="Arial" font-size="10.00" fill="#ffffff">9.23%</text>
<text text-anchor="middle" x="468" y="-110" font-family="Arial" font-size="10.00" fill="#ffffff">(7.69%)</text>
<text text-anchor="middle" x="468" y="-99" font-family="Arial" font-size="10.00" fill="#ffffff">6848435×</text>
</g>
<!-- 3&#45;&gt;12 -->
<g id="edge9" class="edge">
<title>3&#45;&gt;12</title>
<path fill="none" stroke="#0d1676" stroke-width="0.5" d="M405.8,-367.96C386.54,-358.59 368.89,-345.7 357,-328 315.57,-266.3 388.11,-187.44 434.25,-146.48"/>
<polygon fill="#0d1676" stroke="#0d1676" stroke-width="0.5" points="435.16,-147.31 436.97,-144.08 433.54,-145.47 435.16,-147.31"/>
<text text-anchor="middle" x="376.5" y="-259" font-family="Arial" font-size="10.00" fill="#0d1676">2.20%</text>
<text text-anchor="middle" x="376.5" y="-248" font-family="Arial" font-size="10.00" fill="#0d1676">1631304×</text>
</g>
<!-- 17 -->
<g id="node10" class="node">
<title>17</title>
<polygon fill="#0d1375" stroke="#0d1375" points="830.5,-144 655.5,-144 655.5,-92 830.5,-92 830.5,-144"/>
<text text-anchor="middle" x="743" y="-132" font-family="Arial" font-size="10.00" fill="#ffffff">setPeca_tabuleiro(tabuleiro*, coord*)</text>
<text text-anchor="middle" x="743" y="-121" font-family="Arial" font-size="10.00" fill="#ffffff">1.54%</text>
<text text-anchor="middle" x="743" y="-110" font-family="Arial" font-size="10.00" fill="#ffffff">(1.54%)</text>
<text text-anchor="middle" x="743" y="-99" font-family="Arial" font-size="10.00" fill="#ffffff">10478959×</text>
</g>
<!-- 3&#45;&gt;17 -->
<g id="edge10" class="edge">
<title>3&#45;&gt;17</title>
<path fill="none" stroke="#0d1074" stroke-width="0.5" d="M698.33,-367.97C740.25,-358.26 776.32,-345.21 789,-328 826.97,-276.48 808.4,-244.99 789,-184 784.79,-170.75 776.79,-157.89 768.63,-147.14"/>
<polygon fill="#0d1074" stroke="#0d1074" stroke-width="0.5" points="769.43,-146.19 766.32,-144.17 767.5,-147.69 769.43,-146.19"/>
<text text-anchor="middle" x="833.5" y="-259" font-family="Arial" font-size="10.00" fill="#0d1074">0.77%</text>
<text text-anchor="middle" x="833.5" y="-248" font-family="Arial" font-size="10.00" fill="#0d1074">5261808×</text>
</g>
<!-- 6 -->
<g id="node11" class="node">
<title>6</title>
<polygon fill="#0c8791" stroke="#0c8791" points="718,-236 534,-236 534,-184 718,-184 718,-236"/>
<text text-anchor="middle" x="626" y="-224" font-family="Arial" font-size="10.00" fill="#ffffff">tem_ilhas_recursivo(tabuleiro*, coord*)</text>
<text text-anchor="middle" x="626" y="-213" font-family="Arial" font-size="10.00" fill="#ffffff">23.18%</text>
<text text-anchor="middle" x="626" y="-202" font-family="Arial" font-size="10.00" fill="#ffffff">(15.38%)</text>
<text text-anchor="middle" x="626" y="-191" font-family="Arial" font-size="10.00" fill="#ffffff">21469830×</text>
</g>
<!-- 7&#45;&gt;6 -->
<g id="edge14" class="edge">
<title>7&#45;&gt;6</title>
<path fill="none" stroke="#0c8791" stroke-width="0.93" d="M702.47,-275.93C689.15,-264.61 673.34,-251.19 659.56,-239.5"/>
<polygon fill="#0c8791" stroke="#0c8791" stroke-width="0.93" points="660.48,-238.07 655.74,-236.25 658.31,-240.64 660.48,-238.07"/>
<text text-anchor="middle" x="711" y="-259" font-family="Arial" font-size="10.00" fill="#0c8791">23.18%</text>
<text text-anchor="middle" x="711" y="-248" font-family="Arial" font-size="10.00" fill="#0c8791">601306×</text>
</g>
<!-- 16 -->
<g id="node12" class="node">
<title>16</title>
<polygon fill="#0d1375" stroke="#0d1375" points="555.5,-52 380.5,-52 380.5,0 555.5,0 555.5,-52"/>
<text text-anchor="middle" x="468" y="-40" font-family="Arial" font-size="10.00" fill="#ffffff">getPeca_tabuleiro(tabuleiro*, coord*)</text>
<text text-anchor="middle" x="468" y="-29" font-family="Arial" font-size="10.00" fill="#ffffff">1.54%</text>
<text text-anchor="middle" x="468" y="-18" font-family="Arial" font-size="10.00" fill="#ffffff">(1.54%)</text>
<text text-anchor="middle" x="468" y="-7" font-family="Arial" font-size="10.00" fill="#ffffff">27393740×</text>
</g>
<!-- 12&#45;&gt;16 -->
<g id="edge15" class="edge">
<title>12&#45;&gt;16</title>
<path fill="none" stroke="#0d1375" stroke-width="0.5" d="M468,-91.93C468,-80.71 468,-67.42 468,-55.8"/>
<polygon fill="#0d1375" stroke="#0d1375" stroke-width="0.5" points="469.23,-55.75 468,-52.25 466.78,-55.75 469.23,-55.75"/>
<text text-anchor="middle" x="492.5" y="-75" font-family="Arial" font-size="10.00" fill="#0d1375">1.54%</text>
<text text-anchor="middle" x="492.5" y="-64" font-family="Arial" font-size="10.00" fill="#0d1375">27393740×</text>
</g>
<!-- 6&#45;&gt;12 -->
<g id="edge12" class="edge">
<title>6&#45;&gt;12</title>
<path fill="none" stroke="#0d2c7c" stroke-width="0.5" d="M581.99,-183.93C561.19,-172.08 536.33,-157.92 515.15,-145.86"/>
<polygon fill="#0d2c7c" stroke="#0d2c7c" stroke-width="0.5" points="515.7,-144.76 512.05,-144.09 514.48,-146.89 515.7,-144.76"/>
<text text-anchor="middle" x="587.5" y="-167" font-family="Arial" font-size="10.00" fill="#0d2c7c">7.03%</text>
<text text-anchor="middle" x="587.5" y="-156" font-family="Arial" font-size="10.00" fill="#0d2c7c">5217131×</text>
</g>
<!-- 6&#45;&gt;17 -->
<g id="edge13" class="edge">
<title>6&#45;&gt;17</title>
<path fill="none" stroke="#0d1074" stroke-width="0.5" d="M658.59,-183.93C673.68,-172.32 691.65,-158.5 707.12,-146.6"/>
<polygon fill="#0d1074" stroke="#0d1074" stroke-width="0.5" points="708.15,-147.35 710.18,-144.25 706.66,-145.41 708.15,-147.35"/>
<text text-anchor="middle" x="720.5" y="-167" font-family="Arial" font-size="10.00" fill="#0d1074">0.77%</text>
<text text-anchor="middle" x="720.5" y="-156" font-family="Arial" font-size="10.00" fill="#0d1074">5217131×</text>
</g>
<!-- 6&#45;&gt;6 -->
<g id="edge11" class="edge">
<title>6&#45;&gt;6</title>
<path fill="none" stroke="#0c8791" stroke-width="0.93" d="M718.1,-215.97C723.66,-214.55 727,-212.56 727,-210 727,-208.32 725.56,-206.88 723,-205.7"/>
<polygon fill="#0c8791" stroke="#0c8791" stroke-width="0.93" points="723.19,-203.98 718.1,-204.03 722.1,-207.16 723.19,-203.98"/>
<text text-anchor="middle" x="751.5" y="-207.5" font-family="Arial" font-size="10.00" fill="#0c8791">20868524×</text>
</g>
</g>
</svg>
